<svg width="45" height="45" viewBox="0 0 45 45" fill="none" xmlns="http://www.w3.org/2000/svg">
<rect width="45" height="45" fill="white"/>
<path d="M21.4395 36.6722C21.1493 37.2255 20.4283 37.3801 19.9367 36.9944L15.3744 33.4147C14.9399 33.0738 14.8641 32.4452 15.205 32.0107L25.6989 18.6362C26.0398 18.2017 26.6685 18.1259 27.103 18.4668L29.2015 20.1133C29.581 20.4111 29.6938 20.9374 29.4697 21.3646L21.4395 36.6722Z" fill="black"/>
<path d="M28.5131 27.1996C28.1722 27.6341 28.2453 28.2693 28.7213 28.5494C29.7037 29.1276 30.8089 29.4765 31.9542 29.564C33.4332 29.677 34.9126 29.3489 36.2051 28.6211C37.4977 27.8933 38.5454 26.7986 39.2158 25.4754C39.8862 24.1522 40.1492 22.6599 39.9714 21.1872C39.7937 19.7145 39.1833 18.3276 38.2173 17.2019C37.2514 16.0761 35.9733 15.2621 34.5447 14.8627C33.1161 14.4634 31.6012 14.4966 30.1915 14.9582C29.0999 15.3157 28.1094 15.9175 27.2928 16.7128C26.8971 17.0981 26.9772 17.7325 27.4117 18.0734L29.3574 19.6001C29.7919 19.941 30.4156 19.8463 30.8791 19.5459C31.0972 19.4045 31.3338 19.291 31.5835 19.2093C32.1525 19.023 32.7638 19.0096 33.3404 19.1707C33.9169 19.3319 34.4327 19.6604 34.8226 20.1148C35.2124 20.5691 35.4588 21.1288 35.5305 21.7231C35.6022 22.3175 35.4961 22.9197 35.2255 23.4538C34.955 23.9878 34.5321 24.4296 34.0105 24.7233C33.4889 25.017 32.8918 25.1494 32.2949 25.1038C32.0329 25.0838 31.7761 25.0299 31.5306 24.9444C31.009 24.7629 30.3807 24.8193 30.0398 25.2538L28.5131 27.1996Z" fill="black"/>
<path d="M23.6161 7.06357C23.9064 6.51024 24.6274 6.35568 25.119 6.74139L29.6812 10.321C30.1157 10.662 30.1916 11.2906 29.8507 11.7251L19.3567 25.0996C19.0158 25.5341 18.3872 25.6099 17.9527 25.269L15.8542 23.6225C15.4747 23.3247 15.3618 22.7984 15.5859 22.3712L23.6161 7.06357Z" fill="black"/>
<path d="M16.5426 16.5362C16.8835 16.1017 16.8103 15.4665 16.3344 15.1864C15.352 14.6082 14.2467 14.2593 13.1015 14.1718C11.6224 14.0588 10.1431 14.3869 8.85053 15.1147C7.55797 15.8425 6.51024 16.9372 5.83985 18.2604C5.16945 19.5836 4.90649 21.0759 5.08422 22.5486C5.26195 24.0213 5.87239 25.4082 6.83834 26.5339C7.80429 27.6597 9.08237 28.4737 10.511 28.873C11.9395 29.2724 13.4545 29.2392 14.8642 28.7776C15.9558 28.4201 16.9463 27.8183 17.7629 27.023C18.1585 26.6377 18.0785 26.0033 17.644 25.6624L15.6982 24.1357C15.2637 23.7948 14.64 23.8895 14.1766 24.1899C13.9584 24.3313 13.7218 24.4447 13.4721 24.5265C12.9032 24.7128 12.2918 24.7262 11.7153 24.565C11.1387 24.4039 10.6229 24.0753 10.2331 23.621C9.84326 23.1667 9.59691 22.607 9.52518 22.0126C9.45345 21.4183 9.55957 20.816 9.83013 20.282C10.1007 19.748 10.5235 19.3062 11.0452 19.0125C11.5668 18.7188 12.1638 18.5864 12.7607 18.632C13.0227 18.652 13.2795 18.7059 13.5251 18.7913C14.0467 18.9729 14.675 18.9164 15.0159 18.4819L16.5426 16.5362Z" fill="black"/>
</svg>
